<svg width="133" height="133" viewBox="0 0 133 133" fill="none" xmlns="http://www.w3.org/2000/svg">
<path fill-rule="evenodd" clip-rule="evenodd" d="M20 0C8.9543 0 0 8.95431 0 20V113C0 124.046 8.95431 133 20 133H113C124.046 133 133 124.046 133 113V20C133 8.9543 124.046 0 113 0H20ZM50.167 86.1444C55.0584 87.0126 61.3087 85.2108 61.3087 85.2108C61.3087 85.2108 59.1353 77.4236 53.5633 76.5282C47.99 75.6365 45.616 75.5762 45.616 75.5762C45.616 75.5762 56.4341 73.3027 59.6703 67.4515C62.3468 62.6094 62.5244 61.1159 62.8008 58.7915C62.8585 58.3065 62.9205 57.7853 63.0104 57.1899C63.0104 57.1899 53.82 54.1726 48.9776 58.4646C44.1341 62.7567 42.5339 66.0893 42.5339 66.0893C42.5339 66.0893 45.9623 57.2934 45.382 50.9582C44.8064 44.7042 38.2778 35.5733 36.5904 35.4095L36.5881 35.3627C36.584 35.3627 36.577 35.3677 36.5697 35.373C36.5621 35.3785 36.5541 35.3842 36.5487 35.3848C36.544 35.3848 36.5368 35.3802 36.5295 35.3754C36.5216 35.3704 36.5136 35.3651 36.5081 35.3651L36.5104 35.4119C34.8434 35.7235 29.0982 45.3988 29.0433 51.6811C28.9919 58.0447 33.1405 66.5068 33.1405 66.5068C33.1405 66.5068 31.2668 63.3244 26.0853 59.477C20.9038 55.6283 12 59.4499 12 59.4499C12.1386 60.0343 12.2433 60.5474 12.3408 61.025C12.8086 63.3172 13.109 64.789 16.1796 69.3776C19.8899 74.9222 30.8548 76.2302 30.8548 76.2302C30.8548 76.2302 28.4928 76.4974 23.0163 77.8829C17.5398 79.266 16.022 87.2158 16.022 87.2158C16.022 87.2158 22.4001 88.4597 27.1995 87.1629C31.7063 85.9436 35.4058 81.9952 35.8513 81.5075L36.5761 98.9232L36.7517 98.9158L41.6275 98.6991L41.8042 98.6917L41.0794 81.2759C41.5606 81.723 45.5778 85.3291 50.167 86.1444ZM76.9667 81.0099C85.3438 81.0099 92.1578 88.0361 92.1578 96.6768C92.1578 105.315 85.3438 112.344 76.9667 112.344C68.5896 112.344 61.7744 105.315 61.7744 96.6768C61.7744 88.0361 68.5896 81.0099 76.9667 81.0099ZM76.9667 110.149C84.17 110.149 90.0298 104.104 90.0298 96.6768C90.0298 95.9455 89.973 95.2275 89.8636 94.5274L64.8173 101.631C66.7351 106.615 71.4578 110.149 76.9667 110.149ZM64.198 99.5337C64.0044 98.6126 63.9024 97.6568 63.9024 96.6768C63.9024 89.2492 69.7622 83.2046 76.9667 83.2046C82.7197 83.2046 87.6158 87.0603 89.3541 92.3969L64.198 99.5337ZM62.974 44.3281L61.7171 45.6242C61.5081 45.8385 61.2382 45.9444 60.9648 45.9444C60.6913 45.9444 60.4214 45.8373 60.2136 45.623L57.2974 42.6167C57.098 42.4122 56.9858 42.1327 56.9858 41.842C56.9858 41.5514 57.098 41.2718 57.2974 41.0661L62.7481 35.4461L60.1565 32.7749L57.8957 35.1065C57.6879 35.3196 57.4157 35.4267 57.1434 35.4279C56.8711 35.4279 56.5989 35.3208 56.3911 35.1065L53.4749 32.099C53.2755 31.8933 53.1632 31.615 53.1632 31.3243C53.1632 31.0337 53.2755 30.7541 53.4749 30.5484L62.4193 21.3214C62.8348 20.8929 63.5071 20.8929 63.9227 21.3214L66.8401 24.3302C67.0407 24.5346 67.1518 24.8142 67.1542 25.1049C67.1542 25.3955 67.0407 25.6751 66.8413 25.8807L64.5784 28.2145L67.1701 30.8866L72.6223 25.265C73.0355 24.8376 73.709 24.8364 74.1258 25.265L77.0419 28.27C77.2414 28.4769 77.3536 28.7553 77.3536 29.0459C77.3536 29.3366 77.2414 29.6161 77.0419 29.8218L75.7856 31.1173L103.261 59.4536L103.311 59.8181C103.326 59.9242 103.526 61.6024 102.453 64.0233L107.55 69.2804C107.782 69.5205 107.896 69.8629 107.852 70.1991C107.84 70.2984 107.563 72.3247 106.222 74.1693L118.919 87.2626C119.335 87.6912 119.335 88.3858 118.919 88.8144C118.711 89.0275 118.44 89.1371 118.167 89.1371C117.893 89.1371 117.622 89.0287 117.416 88.8144L104.718 75.7188C102.963 77.0688 101.032 77.3601 100.857 77.3864L100.848 77.3878C100.802 77.3928 100.758 77.3952 100.713 77.3977C100.433 77.3977 100.161 77.2844 99.9605 77.0775L94.8512 71.8051C93.0755 72.6356 91.7206 72.7367 91.1738 72.7374C90.9565 72.7374 90.8394 72.7226 90.8394 72.7226L90.4728 72.677L90.1982 72.4073L62.974 44.3281ZM96.7772 70.6912L101.06 75.1094C101.746 74.9284 103.025 74.4789 104.021 73.4517C105.015 72.427 105.46 71.1154 105.638 70.4109L101.363 66.0012C100.836 66.7976 100.171 67.6388 99.3312 68.5045C98.4496 69.4139 97.5899 70.1291 96.7772 70.6912ZM87.5671 46.3684L74.2822 32.668L64.4792 42.778L77.7632 56.4793L87.5671 46.3684ZM61.661 31.2233L63.0749 29.7651L65.665 32.4352L64.2511 33.8934L61.661 31.2233ZM62.3703 27.3894L64.5855 25.1049L63.1716 23.6479L55.7307 31.3231L57.1446 32.7788L59.3753 30.4782C59.3846 30.4678 59.3942 30.4576 59.404 30.4474L62.3201 27.4375C62.3364 27.4208 62.3531 27.4047 62.3703 27.3894ZM74.7861 29.0459L73.3746 27.5914L59.5532 41.842L60.9648 43.2977L74.7861 29.0459ZM83.5812 47.0541L78.426 52.3695C78.2194 52.5826 77.9471 52.6898 77.6736 52.691C77.4014 52.691 77.1303 52.5826 76.9225 52.3695C76.5057 51.941 76.5057 51.2463 76.9225 50.8178L82.0754 45.5023C82.4921 45.0737 83.1645 45.0737 83.5812 45.5023C83.9956 45.9321 83.9956 46.6255 83.5812 47.0541ZM80.7522 44.1389L75.5982 49.4544C75.3916 49.6675 75.1193 49.7746 74.847 49.7758C74.5736 49.7758 74.3025 49.6687 74.0947 49.4544C73.6779 49.027 73.6779 48.3324 74.0947 47.9038L79.2476 42.5871C79.6643 42.1585 80.3367 42.1585 80.7522 42.5871C81.1678 43.0157 81.1678 43.7103 80.7522 44.1389ZM77.928 41.2225L72.7728 46.538C72.5638 46.7523 72.2939 46.8595 72.0204 46.8595C71.747 46.8595 71.4771 46.7523 71.2681 46.538C70.8525 46.1107 70.8525 45.4161 71.2681 44.9875L76.4245 39.672C76.8389 39.2434 77.5112 39.2434 77.928 39.672C78.3436 40.1006 78.3436 40.7939 77.928 41.2225ZM75.1002 38.3074L69.9461 43.6241C69.7383 43.8372 69.4673 43.9443 69.1938 43.9455C68.9215 43.9455 68.6505 43.8384 68.4427 43.6241C68.0259 43.1955 68.0259 42.5021 68.4427 42.0735L73.5967 36.7568C74.0123 36.3282 74.6846 36.3282 75.1002 36.7568C75.5158 37.1842 75.5158 37.8788 75.1002 38.3074Z" fill="black"/>
</svg>
