<svg width="133" height="133" viewBox="0 0 133 133" fill="none" xmlns="http://www.w3.org/2000/svg">
<path fill-rule="evenodd" clip-rule="evenodd" d="M20 0C8.9543 0 0 8.95431 0 20V113C0 124.046 8.95431 133 20 133H113C124.046 133 133 124.046 133 113V20C133 8.9543 124.046 0 113 0H20ZM62.7818 23.5224H23.917C22.6027 23.5224 21.3967 24.0601 20.5153 24.9251L20.4457 24.9874C19.5566 25.8836 19 27.1227 19 28.4864V90.9927C19 92.3565 19.5566 93.6033 20.4457 94.4917C21.3348 95.3879 22.5718 95.949 23.917 95.949H35.6607V93.6735H23.917C23.1903 93.6735 22.5177 93.3695 22.0384 92.8864C21.559 92.4032 21.2575 91.7253 21.2575 90.9927V28.4864C21.2575 27.7539 21.559 27.0759 22.0384 26.5927L22.077 26.546C22.5641 26.0862 23.2135 25.8057 23.917 25.8057H62.7818C63.5162 25.8057 64.1811 26.1018 64.6682 26.5927C65.1475 27.0759 65.449 27.7539 65.449 28.4864V61.302L67.7066 62.2839V28.4864C67.7066 27.1227 67.1499 25.8758 66.2608 24.9796C65.364 24.0834 64.1347 23.5224 62.7818 23.5224ZM64.1502 86.4807L47.7214 79.7399C47.0101 79.4437 46.6313 78.5865 47.1802 78.3761L61.4829 73.2251C61.5606 73.1976 61.7177 73.1409 61.926 73.0657C62.9614 72.692 65.2623 71.8614 65.3717 71.9003L82.9061 78.0956C83.4395 78.2826 83.9653 79.2333 83.4473 79.4515L66.0521 86.6132C65.5341 86.8314 64.6682 86.6911 64.1502 86.4807ZM67.204 112.836L84.3673 103.453C84.8621 103.181 84.9317 102.674 84.9239 102.105L85.0399 82.218C85.0476 81.6491 84.3286 81.4543 83.8106 81.6725L66.5855 89.0679C66.0675 89.2939 66.0211 89.8472 66.0211 90.4161V112.501C66.0211 113.07 66.7092 113.109 67.204 112.836ZM81.1898 99.6194C81.9397 97.9439 81.5995 96.175 80.4321 95.6762C79.2647 95.1775 77.703 96.1282 76.9531 97.7959C76.2031 99.4791 76.5433 101.24 77.7107 101.739C78.8781 102.238 80.4398 101.295 81.1898 99.6194ZM74.9816 95.1385C75.7625 93.4085 75.4068 91.585 74.2008 91.0629C72.987 90.5407 71.3789 91.5226 70.598 93.2604C69.8172 94.9904 70.1651 96.814 71.3789 97.3361C72.5927 97.8582 74.2085 96.8685 74.9816 95.1385ZM63.207 112.587L46.1984 103.305C45.7036 103.033 45.634 102.526 45.6417 101.965L45.6031 82.2258C45.6031 81.6569 46.3143 81.4543 46.8323 81.6803L63.8255 89.0289C64.3435 89.2549 64.3899 89.8082 64.3899 90.3771V112.252C64.3899 112.82 63.7018 112.859 63.207 112.587ZM51.4246 98.9726C50.5433 97.3361 48.9584 96.5568 47.8915 97.2348C46.8246 97.9128 46.6854 99.7986 47.559 101.451C48.4481 103.095 50.033 103.874 51.0999 103.189C52.1668 102.503 52.3137 100.617 51.4246 98.9726ZM56.6587 95.1931C55.7232 93.5254 54.0455 92.7383 52.9168 93.4319C51.788 94.1254 51.6334 96.0269 52.5766 97.6868C53.5121 99.3466 55.1897 100.134 56.3185 99.4479C57.4472 98.7622 57.6019 96.8529 56.6587 95.1931ZM62.0164 91.1797C61.0654 89.5121 59.38 88.725 58.2436 89.4186C57.1071 90.1121 56.9524 92.0136 57.9034 93.6813C58.8543 95.3489 60.5397 96.136 61.6762 95.4424C62.8127 94.7489 62.9596 92.8396 62.0164 91.1797ZM68.8508 78.8281C68.8508 77.8618 67.2272 77.0825 65.2248 77.0825C63.2225 77.0825 61.5989 77.8618 61.5989 78.8281C61.5989 79.7944 63.2225 80.5737 65.2248 80.5737C67.2272 80.5737 68.8508 79.7944 68.8508 78.8281ZM73.9611 20L110.352 29.8268C111.658 30.1852 112.702 31.0424 113.336 32.1257C113.962 33.2244 114.187 34.5726 113.831 35.8896L97.7809 96.2607C97.4253 97.5777 96.5748 98.6297 95.4847 99.2687C94.6807 99.7441 93.7298 99.9857 92.7634 99.9311L92.7788 97.6556C93.3432 97.7102 93.8998 97.5777 94.3637 97.3049C94.9513 96.9698 95.4229 96.3932 95.6084 95.684L96.196 93.4631C96.0337 93.3773 95.9022 93.2293 95.794 93.0578L92.8484 87.9146L92.8716 83.4181L96.9691 90.5719L99.4354 81.2751L74.2935 37.3936L74.2008 32.6945L100.255 78.1813L102.729 68.8845L76.466 23.0392L74.0075 22.369L73.9611 20ZM74.5718 51.4831L85.0708 69.8118L81.6072 68.3156L74.6646 56.1899L74.5718 51.4831ZM109.331 44.0877L101.074 29.6787L91.8511 27.1772L106.857 53.3767L109.331 44.0877ZM104.136 30.4969L110.143 40.9705L111.635 35.3129C111.821 34.596 111.705 33.8712 111.365 33.2712C111.024 32.6789 110.46 32.2036 109.757 32.0166L104.136 30.4969ZM106.03 56.486L88.7741 26.359L79.5507 23.8575L103.556 65.7829L106.03 56.486ZM25.0922 34.3388L24.6438 34.409V35.1649H26.7776V34.409L26.3446 34.331L26.623 33.4582H28.6485L28.9269 34.331L28.4939 34.409V35.1649H30.6277V34.409L30.187 34.3388L28.2929 28.8449H27.0018L25.0922 34.3388ZM28.3625 32.5309H26.9245L27.628 30.3021H27.6589L28.3625 32.5309ZM44.8531 62.8606L47.1261 68.1519H39.7428L41.3586 62.8606C37.2688 66.3284 31.9575 63.897 31.424 58.5745C30.9834 54.1872 35.1427 48.5374 43.1909 41.1809C51.2855 48.5374 55.4139 54.2183 55.3057 58.5745C55.1511 64.6374 48.9275 66.7414 44.8531 62.8606Z" fill="black"/>
</svg>
