<svg width="50" height="50" viewBox="0 0 50 50" fill="none" xmlns="http://www.w3.org/2000/svg">
<path fill-rule="evenodd" clip-rule="evenodd" d="M5 0C2.23858 0 0 2.23858 0 5V45C0 47.7614 2.23858 50 5 50H45C47.7614 50 50 47.7614 50 45V5C50 2.23858 47.7614 0 45 0H5ZM20.6065 6.93515C20.7784 7.10706 20.875 7.34022 20.875 7.58333V18.7657C20.8753 18.9424 20.9455 19.1118 21.0702 19.2369C23.5865 21.7532 25 25.1659 25 28.7244V41.1737C25 41.7464 24.7725 42.2958 24.3675 42.7008C23.9624 43.1058 23.4131 43.3333 22.8403 43.3333H14.1907C13.0733 43.3333 12.1667 42.4277 12.1667 41.3093V29.0407C12.1673 27.1919 12.5563 25.3639 13.3084 23.675C14.0605 21.9862 15.159 20.4742 16.5327 19.2369C16.6008 19.1753 16.6553 19.1003 16.6927 19.0164C16.7301 18.9326 16.7496 18.8419 16.75 18.7502V7.58333C16.75 7.34022 16.8466 7.10706 17.0185 6.93515C17.1904 6.76324 17.4236 6.66667 17.6667 6.66667H19.9583C20.2015 6.66667 20.4346 6.76324 20.6065 6.93515ZM23.1667 29.5833H14V36.9167H23.1667V29.5833ZM28.9967 25H35.6691L35.0833 19.5H29.5833L28.9967 25ZM36.7333 17.6667H27.9333L27.0048 26.408C26.8616 27.7604 27.2376 29.1168 28.0567 30.2024C28.8759 31.288 30.0769 32.0219 31.4167 32.2554V41.5H28.6667C28.4236 41.5 28.1904 41.5966 28.0185 41.7685C27.8466 41.9404 27.75 42.1736 27.75 42.4167C27.75 42.6598 27.8466 42.8929 28.0185 43.0648C28.1904 43.2368 28.4236 43.3333 28.6667 43.3333H36C36.2431 43.3333 36.4763 43.2368 36.6482 43.0648C36.8201 42.8929 36.9167 42.6598 36.9167 42.4167C36.9167 42.1736 36.8201 41.9404 36.6482 41.7685C36.4763 41.5966 36.2431 41.5 36 41.5H33.25V32.2563C34.59 32.0228 35.7911 31.2888 36.6103 30.203C37.4294 29.1171 37.8053 27.7606 37.6619 26.408L36.7333 17.6667Z" fill="black"/>
</svg>
