<svg width="133" height="133" viewBox="0 0 133 133" fill="none" xmlns="http://www.w3.org/2000/svg">
<path fill-rule="evenodd" clip-rule="evenodd" d="M20 0C8.9543 0 0 8.95431 0 20V113C0 124.046 8.95431 133 20 133H113C124.046 133 133 124.046 133 113V20C133 8.9543 124.046 0 113 0H20ZM91.3659 43.8334L88.9961 46.0067L98.9274 53.7465L105.428 52.3557L92.4646 42.253C92.2502 42.8215 91.8827 43.3596 91.3659 43.8334ZM109.279 55.3515L110.913 60.2272C111.733 62.6666 109.91 65.1885 106.855 65.8396L101.151 67.0592C95.9705 68.1663 92.3266 64.1143 89.1882 60.6243C89.0516 60.4723 88.9159 60.3215 88.7811 60.1722L86.1051 57.2559C85.6112 56.7516 85.7261 56.021 86.3577 55.6267C86.9894 55.2323 87.9044 55.3241 88.3982 55.8284C89.0874 56.5284 89.742 57.256 90.3929 57.9835L107.188 54.3886C108.096 54.193 109.037 54.6271 109.279 55.3515ZM85.8835 39.3458C86.9286 38.7803 88.3183 38.9209 89.1529 39.6759C89.9875 40.431 89.9922 41.5467 89.1652 42.3048L76.5273 53.8904L73.3535 63.0118L69.3261 49.3203L70.3367 47.7308L85.8835 39.3458ZM63.7174 94.4667C68.1468 94.4667 71.7685 91.5719 71.7685 88.0382C71.7685 84.5014 68.1469 81.6097 63.7214 81.6067H29.5994C25.17 81.6067 21.5483 84.5015 21.5483 88.0351C21.5483 91.5719 25.1738 94.4636 29.5994 94.4636L63.7174 94.4667ZM29.5994 85.7181C31.2035 85.7181 32.5051 86.7543 32.5051 88.0382C32.5051 89.319 31.2035 90.3583 29.5994 90.3583C27.9953 90.3583 26.6937 89.322 26.6937 88.0382C26.6937 86.7574 27.9915 85.7181 29.5994 85.7181ZM40.9731 85.7181C42.5771 85.7181 43.8788 86.7543 43.8788 88.0382C43.8788 89.319 42.5771 90.3583 40.9731 90.3583C39.369 90.3583 38.0674 89.322 38.0674 88.0382C38.0674 86.7574 39.3652 85.7181 40.9731 85.7181ZM52.3467 85.7181C53.9508 85.7181 55.2524 86.7543 55.2524 88.0382C55.2524 89.319 53.9508 90.3583 52.3467 90.3583C50.7426 90.3583 49.441 89.322 49.441 88.0382C49.441 86.7574 50.7388 85.7181 52.3467 85.7181ZM63.7204 85.7181C65.3244 85.7181 66.6261 86.7543 66.6261 88.0382C66.6261 89.319 65.3244 90.3583 63.7204 90.3583C62.1163 90.3583 60.8147 89.322 60.8147 88.0382C60.8147 86.7574 62.1125 85.7181 63.7204 85.7181ZM71.3695 75.0711C72.6443 73.7842 73.0731 72.2558 72.6022 70.6601L65.3975 46.1662C65.0797 45.0871 63.9121 44.3474 62.5224 44.3474H44.8351C43.4416 44.3474 42.2663 45.0963 41.9562 46.1815L38.6255 57.8062C38.3154 58.8915 37.1401 59.6404 35.7466 59.6404H23.9593C22.3323 59.6404 21.0038 60.701 21.0038 62.0002L21 74.6799C21 75.979 22.3284 77.0397 23.9555 77.0397H31.0265V79.2834H62.2886V77.0397H66.2739C68.3259 77.0397 70.0946 76.355 71.3695 75.0711ZM26.1605 62.8469C26.9645 62.8469 27.6192 63.3665 27.6192 64.0115V67.6614C27.6192 68.3034 26.9683 68.8261 26.1605 68.8261C25.3566 68.8261 24.7019 68.3064 24.7019 67.6614V64.0115C24.7019 63.3696 25.3527 62.8469 26.1605 62.8469ZM30.8082 62.8469C31.6122 62.8469 32.2668 63.3665 32.2668 64.0115V67.6614C32.2668 68.3034 31.616 68.8261 30.8082 68.8261C30.0042 68.8261 29.3496 68.3064 29.3496 67.6614V64.0115C29.3496 63.3696 30.0004 62.8469 30.8082 62.8469ZM35.452 62.8469C36.256 62.8469 36.9107 63.3665 36.9107 64.0115V67.6614C36.9107 68.3034 36.2598 68.8261 35.452 68.8261C34.6481 68.8261 33.9934 68.3064 33.9934 67.6614V64.0115C33.9934 63.3696 34.6443 62.8469 35.452 62.8469ZM60.8192 48.4247L64.0389 59.3804C64.9692 62.5473 61.9944 65.5427 57.9211 65.5458H47.4118C46.6614 65.5458 46.0183 65.2707 45.5971 64.7755L43.1355 61.8685C42.6838 61.3366 42.6302 60.7007 42.9824 60.123C43.2504 59.6828 43.4609 59.2151 43.6026 58.7199L46.5504 48.4278L60.8192 48.4247Z" fill="black"/>
</svg>
